<svg width="539" height="118" viewBox="0 0 539 118" fill="none" xmlns="http://www.w3.org/2000/svg">
<path fill-rule="evenodd" clip-rule="evenodd" d="M285.329 105.406L283.029 104.037C286.006 99.3829 288.847 94.5917 291.823 89.6636C290.741 80.9026 298.046 62.6961 305.893 48.7332C299.805 50.5128 293.717 52.5661 288.576 54.4826L287.629 51.8817C289.658 51.0603 298.182 48.0487 307.923 45.3109C311.576 39.1508 315.228 34.2228 318.07 31.7587C320.099 29.8422 322.264 28.3364 323.752 29.7053C325.105 30.8005 323.752 35.5917 320.775 42.1624C331.599 40.1091 341.61 39.8353 344.587 44.4896C347.834 49.6914 342.693 58.8631 328.216 73.2367C311.711 89.6636 301.023 96.9188 295.611 95.2761C294.664 95.0023 293.717 94.4548 292.905 93.0859C288.711 99.9304 285.735 104.722 285.329 105.406ZM294.664 90.2112C295.07 91.9907 295.746 92.4014 296.423 92.6752C298.858 93.3596 306.029 91.5801 326.322 71.3202C343.369 54.3457 343.64 48.1856 342.287 45.9954C340.122 42.4362 330.652 42.9838 319.422 45.3109C313.199 58.5894 302.376 77.2065 294.664 90.2112ZM309.681 47.6381C302.782 59.5476 296.017 75.4269 294.664 84.8724C303.052 70.4989 311.034 56.2622 316.04 45.9954C313.966 46.5429 311.846 47.0905 309.681 47.6381ZM321.722 32.3063C321.452 32.5801 320.775 32.9907 319.828 33.8121C317.528 35.8654 314.687 39.6984 311.711 44.2158C313.695 43.7595 315.679 43.3032 317.664 42.8469C320.099 37.7819 321.587 34.0859 321.722 32.3063ZM335.522 81.9977C335.522 81.9977 334.44 80.6288 333.087 80.7657C332.005 80.9026 329.975 82.1346 327.54 88.4316C326.999 90.0743 326.728 91.0325 326.728 91.5801C328.487 90.4849 332.41 86.5151 335.522 82.819L337.822 84.188C337.416 85.2831 336.74 88.4316 338.228 89.9374C339.31 91.0325 342.151 92.2645 350.81 89.116C369.616 82.2715 373.945 78.4385 374.08 78.3016L366.91 84.8724C366.639 85.1462 365.827 86.3782 351.622 91.717C344.045 94.5917 338.904 94.5917 336.334 91.8539C335.252 90.7587 334.846 89.2529 334.71 87.884C329.569 93.6334 327.134 94.5917 325.916 94.5917C325.511 94.5917 325.105 94.4548 324.969 94.3179C323.346 93.3596 323.752 90.8956 325.105 87.4733C327.269 81.587 329.705 78.4385 332.681 78.0279C335.657 77.6172 334.981 78.1648 334.981 78.3016L335.522 81.9977ZM382.062 118C375.433 118 369.48 116.631 367.586 113.346C365.421 109.923 368.127 105.543 375.568 100.478C383.821 94.5917 391.939 89.8005 398.838 86.1044C397.485 81.0395 395.727 75.7007 394.103 71.0464C392.886 67.2135 391.668 63.5174 390.721 60.232C389.368 55.8515 390.044 51.8817 392.615 48.3225C399.244 38.7402 422.108 35.8655 422.785 35.7286L418.591 38.4664C418.32 38.4664 401.003 41.2042 395.05 49.8283C393.021 52.703 392.48 55.9884 393.562 59.5476C394.509 62.6961 395.727 66.3921 396.944 70.2251C398.568 74.8794 400.191 79.8074 401.544 84.7355C411.15 79.8074 417.644 77.0696 417.779 77.0696L420.485 75.9745L419.809 78.5754C418.05 85.6938 417.644 94.0441 419.673 94.8655C420.214 95.1392 423.191 95.6868 432.796 84.3249C433.247 83.8685 433.653 83.4123 434.014 82.9559C434.104 81.587 434.24 80.4006 434.42 79.3968C436.179 67.3504 442.673 51.3341 452.82 44.7634C455.661 42.9838 459.314 41.0673 461.208 42.8469C466.349 47.775 444.702 74.6056 436.99 83.9142C436.585 89.6636 438.073 96.7819 440.102 99.1091L437.261 98.0139C434.826 95.413 434.014 91.4432 433.879 87.4733C426.573 95.8237 421.838 98.8353 418.456 97.3295C413.991 95.413 415.209 86.1044 416.291 80.7657C413.45 81.9977 408.444 84.188 402.356 87.4733C405.738 100.615 406.55 112.524 397.485 115.673C393.156 117.042 387.339 118 382.062 118ZM399.65 88.9791C393.021 92.5383 385.309 97.0557 377.327 102.668C371.645 106.638 368.939 110.06 370.157 111.977C372.321 115.81 386.662 116.357 396.403 113.072C403.303 110.745 402.491 100.341 399.65 88.9791ZM459.043 44.7634C459.043 44.9002 457.825 44.9002 454.578 47.0905C445.784 52.703 439.426 67.0766 437.532 78.7123C455.255 57.0835 459.855 46.406 459.043 44.7634ZM504.501 97.4664C502.336 97.4664 500.577 96.5081 499.495 94.5917C498.683 93.3597 498.277 91.717 498.142 89.9374C495.301 93.6334 491.378 96.9188 487.725 97.3295C485.019 97.7402 482.584 96.5081 481.095 93.9072C479.833 91.717 479.607 89.618 480.419 87.6102C481.095 85.9675 482.448 84.4617 484.207 83.3666C480.284 84.3248 475.819 85.0093 471.354 84.5986C469.19 84.4161 467.476 83.9598 466.213 83.2297C465.266 85.0093 463.778 87.0627 461.749 89.2529C460.802 90.2112 458.637 92.5383 456.608 91.5801C455.796 91.1694 453.225 89.9374 457.419 76.522L458.502 75.1531C457.014 80.0812 457.961 86.9258 458.096 88.7054C458.366 88.4316 458.908 88.1578 459.449 87.4733C461.749 85.0093 463.102 82.9559 463.913 81.1764C463.913 81.0851 463.868 80.9938 463.778 80.9026C462.29 77.891 464.996 74.4687 465.131 74.3318L466.619 72.4153L467.702 74.6056C467.837 75.0163 468.649 77.0696 467.431 80.7657C468.333 81.3132 469.776 81.6783 471.76 81.8608C477.984 82.5453 484.884 80.4919 489.348 79.123C493.542 77.7541 495.572 77.2065 496.654 78.4385L497.195 78.9861L497.06 79.8074C496.789 80.9026 495.572 81.3133 493.001 82.2715C489.889 83.5035 484.342 85.5569 483.26 88.5685C482.719 89.7549 482.899 91.1238 483.801 92.6752C485.019 94.7286 486.372 94.7286 487.319 94.5917C491.107 94.181 496.248 88.7053 498.413 84.0511C498.954 80.6288 499.901 77.6172 500.442 77.2065L501.254 76.522L502.201 76.9327C503.283 77.4803 503.283 78.3017 502.201 82.2715C502.02 83.0016 501.75 83.8229 501.389 84.7355C500.983 88.1578 500.848 91.9907 502.471 93.9072C502.877 94.3179 503.689 95.0023 505.583 94.5917C517.895 92.2645 538.729 82.1346 539 81.9977C539 81.9977 518.842 94.8655 506.124 97.3295C505.583 97.4208 505.042 97.4664 504.501 97.4664ZM421.567 72.826C420.756 73.3736 418.861 74.058 418.591 72.6891C418.185 71.3202 419.403 68.4455 420.35 69.13C421.297 69.6775 422.514 69.13 422.785 70.6358C423.191 72.1416 421.567 72.4153 421.567 72.826Z" fill="#231F20"/>
<path d="M200.527 79.123C200.391 81.3132 202.691 79.5336 203.232 79.2598C203.232 78.9861 204.585 77.891 204.315 77.0696C204.18 76.2483 203.097 75.29 202.15 75.5638C201.068 75.8376 200.527 76.9327 200.527 79.123Z" fill="#231F20"/>
<path fill-rule="evenodd" clip-rule="evenodd" d="M126.252 106.364L125.44 107.459C125.078 107.262 124.705 107.065 124.323 106.865C119.418 104.287 113.148 100.992 113.399 84.7355C102.846 96.0974 96.8936 99.9304 92.9701 98.5615C91.4819 98.1508 90.2643 96.9188 89.5879 95.0023C89.2271 95.5499 88.8212 96.0518 88.3703 96.5081C86.882 98.1508 84.0409 99.6566 79.441 97.3295C76.194 95.778 74.5706 93.9072 74.5706 91.7169C74.5706 87.6404 83.3098 84.1955 84.5977 83.6879C84.6505 83.667 84.6908 83.6512 84.7174 83.6404L82.9586 86.3782C81.1998 87.3364 77.4117 89.6636 77.4117 91.7169C77.4117 93.0858 79.1705 94.181 80.6587 94.8654C84.1762 96.645 85.5292 95.413 85.935 95.0023C87.2879 93.9072 87.9644 91.8538 88.3703 89.6636C88.1899 87.7471 88.0997 85.4656 88.0997 82.819C88.0997 81.4501 88.0997 80.2181 89.3173 79.9443L90.2643 79.6705L90.9408 80.4919C91.3467 81.1763 91.8878 85.5568 91.2114 89.6636C91.6173 92.6752 92.2937 95.5499 93.9172 95.9606C97.1642 97.1926 105.552 89.2529 113.534 80.4919C114.076 73.5104 115.428 64.8863 117.864 53.6612C122.464 33.9489 133.693 22.0394 141.946 20.8074C145.057 20.2599 147.492 21.355 148.845 23.5452C153.039 30.5267 146.14 46.1322 130.311 65.297C125.034 71.7309 120.299 77.2065 116.376 81.587C115.298 100.264 121.197 103.599 125.789 106.195L125.846 106.227L126.252 106.364ZM142.487 23.4084C142.847 23.3171 143.163 23.2715 143.434 23.2715C144.877 23.2715 145.914 23.819 146.545 24.9141C149.116 29.2947 145.869 42.0255 128.146 63.5174C125.575 66.6659 121.381 71.7309 116.781 76.9327C117.458 70.9095 118.675 63.3805 120.705 54.2088C125.305 34.4965 136.128 24.3666 142.487 23.4084Z" fill="#231F20"/>
<path fill-rule="evenodd" clip-rule="evenodd" d="M134.91 99.2459C132.024 99.2459 129.544 98.5158 127.469 97.0557C121.246 92.6752 121.787 88.9791 122.599 87.0627C124.087 83.7773 128.958 81.7239 131.934 82.4083C133.422 82.6821 134.505 83.7773 134.505 85.1462C134.505 88.8422 129.769 91.4431 126.522 92.6752C127.244 93.4053 128.101 94.1353 129.093 94.8654C131.934 96.7819 135.587 97.0557 140.187 95.6868C146.41 93.7703 152.634 89.116 157.369 85.0093C154.122 81.7239 154.798 79.2599 155.475 78.0278C156.963 75.29 161.157 73.9211 163.998 74.4687C165.757 74.8793 166.974 75.9745 167.11 77.3434C167.245 78.5754 165.216 81.3132 161.969 84.4617C163.457 84.5986 165.08 84.3248 165.757 84.1879L169.274 83.3666L167.245 86.2413C164.945 89.9373 163.051 94.181 163.592 95.0023C178.474 95.6868 193.627 85.1462 196.333 82.6821C196.738 82.2715 197.144 81.9977 197.144 81.9977L198.091 81.3132L199.174 82.2715L199.038 84.051L198.362 84.7355C197.009 86.2413 195.115 89.2529 195.521 90.0742C195.521 90.0742 196.197 91.0325 200.933 89.8005C203.5 89.1343 205.651 88.4357 207.854 87.7205C210.177 86.966 212.558 86.1929 215.544 85.4199C216.762 82.5452 226.908 72.826 232.861 81.4501C234.358 83.43 228.999 84.8154 221.701 86.7022C220.421 87.0331 219.081 87.3794 217.709 87.7471C209.726 96.7819 239.761 87.3364 258.025 81.4501C256.267 82.0173 253.79 82.8999 250.896 83.9309L250.895 83.9313C238.422 88.3749 218.221 95.572 214.597 92.1276C214.191 91.7169 213.515 90.7587 214.056 89.116L214.326 88.5684C211.82 89.2188 209.893 89.8691 208.054 90.49C206.021 91.1762 204.095 91.8265 201.609 92.4014C198.497 93.2227 194.303 93.9072 192.95 91.1694C192.544 90.4849 192.544 89.5267 192.815 88.5684C186.05 92.8121 174.551 98.1508 163.592 97.7401C161.969 97.6032 161.292 96.7819 161.022 96.2343C159.939 94.181 161.698 90.0742 163.457 87.1995C162.239 87.1995 160.886 87.0626 159.669 86.652C156.016 89.8005 151.687 93.2227 147.492 95.413C142.893 98.0139 138.563 99.2459 134.91 99.2459ZM128.552 85.4199C129.499 85.1462 130.311 85.0093 130.852 85.0093C131.303 85.0093 131.573 85.0549 131.663 85.1462C131.663 87.1995 128.011 89.116 125.034 90.348C124.944 89.8917 124.899 89.4354 124.899 88.9791C125.169 87.3364 127.064 85.9675 128.552 85.4199ZM162.645 77.0696C160.886 77.0696 158.722 77.8909 158.045 79.2598C157.233 80.4919 158.316 81.9977 159.398 83.0928C161.969 80.4919 163.863 78.4385 164.269 77.4803C164.133 77.3434 163.727 77.2065 163.457 77.2065C163.186 77.1152 162.916 77.0696 162.645 77.0696ZM224.213 83.5064C222.343 83.8858 220.221 84.3164 218.115 84.8724C219.197 82.5452 228.532 76.522 230.291 81.3132C230.559 82.2188 227.868 82.7649 224.213 83.5064Z" fill="#231F20"/>
<path d="M91.3215 0L90.2392 4.79118C88.2098 14.9211 85.7746 24.0928 83.0688 32.1694C80.2277 40.7935 77.116 48.3225 73.7337 55.0302C65.6162 71.1833 59.1222 81.3132 54.1165 88.5685C52.2224 91.0325 51.1401 96.3712 51.0048 100.204C50.7342 106.638 50.0577 95.0023 50.5989 86.5151C50.5989 84.4617 50.3283 82.819 50.193 81.7239C48.5695 72.9629 45.8637 65.297 42.4814 59C39.3697 53.2506 35.5816 48.4594 31.3875 44.7633C18.8055 39.2877 3.38228 41.6148 0 37.2343C10.9586 33.949 21.9172 36.6868 30.9817 44.3527C31.0719 44.5352 31.2072 44.6721 31.3875 44.7633C35.5816 46.6798 39.505 49.4176 42.4814 53.6613C47.8931 61.464 51.9518 71.0464 53.7106 82.2715C58.3105 75.4269 64.128 65.9815 71.0279 52.1555C74.2748 45.7216 77.3865 38.4664 80.0924 30.116C82.257 23.454 84.2413 16.1531 86.0452 8.21346L84.2864 9.03481L84.2859 9.0351C80.9038 10.9515 77.5217 12.8679 74.2748 14.7842C61.9634 22.4501 51.4106 32.9907 53.9812 55.7146C54.6576 49.5545 56.2811 43.8051 58.3105 38.877C60.6104 33.1276 69.5397 21.7657 75.6278 23.1346C68.9985 26.2831 64.2633 33.5383 61.1516 41.3411C60.7006 42.6187 60.2497 43.942 59.7987 45.3109C56.687 55.7146 55.1988 66.9397 54.9282 74.6056C41.6697 28.6102 68.0515 13.1415 91.3215 0Z" fill="#D54F61"/>
</svg>
